# xmcd CD database file
#
# Track frame offsets:
#	151
#	11923
#	26478
#	40745
#	59889
#	73154
#	85835
#	101019
#	116026
#	131246
#	144584
#	158738
#	173539
#	185085
#	199578
#	214573
#	227331
#	239849
#	253363
#	262661
#
# Disc length: 3832 seconds
#
# Revision: 0
# Processed by: cddbd v1.5.2PL0 Copyright (c) Steve Scherf et al.
# Submitted via: CDex 1.70beta2
#
DISCID=250ef614
DTITLE=Various Artist - History of Jazz
DYEAR=1941
DGENRE=Jazz
TTITLE0=THREE LITTLE WORDS (Kalmar) Ella Fitzgerald and Her Famous Orchestra - Jan 8
TTITLE1=BUGLE CALL RAG (Pettis-Meyers-Schoebel) The Metronome All Stars - Jan 16
TTITLE2=DRUM BOOGIE (Krupa) Irene Day with Gene Krupa and His Orchestra - Jan 17
TTITLE3=PROFOUNDLY BLUE No 2 (Lewis) Edmond Hall Celeste Quartet - Feb 5
TTITLE4=TAKE THE 'A' TRAIN (Strayhorn) Duke Ellington and His Famous Orchestra - Feb 15
TTITLE5=SOLO FLIGHT (Christian-Goodman-Mundy) Benny Goodman and His Orchestra feat Charlie Christian - Mar 4
TTITLE6=MIDNIGHT (Gomez-Parker) Maxine Sullivan with Benny Carter and His Orchestra - Apr 1
TTITLE7=THE GOON DRAG (Price) Sam Price and His Texas Blusicians - Apr 3
TTITLE8=GOIN' TO CHICAGO BLUES (Rushing-Basie) Jimmy Rushing with Count Basie and His Orchestra - Apr 10
TTITLE9=HOOTIE BLUES (McShann-Brown) Walter Brown with Jay McShann and His Orchestra - Apr 30
TTITLE10=LET ME OFF UPTOWN (Evans-Bostic) Anita O' Day with Gene Krupa and His Orchestra - May 8
TTITLE11=YOU MADE ME LOVE YOU (McCarthy-Monaco) Harry James and His Orchestra - May 20
TTITLE12=TROUBLE IN MIND (Jones) Sister Rosetta Tharpe with Lucky Millinder and His Orchestra - Jun 27
TTITLE13=PASSION FLOWER (Strayhorn) Johnny Hodges and His Orchestra - Jul 3
TTITLE14=BLUE SKIES (Berlin) Frank Sinatra with Tommy Dorsey and His Orchestra - Jul 15
TTITLE15=I LIKE TO RIFF (Cole) Nat King Cole Trio - Jul 16
TTITLE16=ST JAMES INFIRMARY (Primrose) Cab Calloway and His Orchestra - Jul 24
TTITLE17=GEORGIA CABIN (Bechet-Karoley) Sidney Bechet and His New Orleans Feetwarmers - Sep 13
TTITLE18=LET'S DO IT (Porter) Peggy Lee with Benny Goodman and His Orchestra - Oct 21
TTITLE19=BLUES IN THE NIGHT Parts 1 and 2 (Arlen-Mercer) Jimmie Lunceford and His Orchestra - Dec 22
EXTD=YEAR: 1941
EXTT0=
EXTT1=
EXTT2=
EXTT3=
EXTT4=
EXTT5=
EXTT6=
EXTT7=
EXTT8=
EXTT9=
EXTT10=
EXTT11=
EXTT12=
EXTT13=
EXTT14=
EXTT15=
EXTT16=
EXTT17=
EXTT18=
EXTT19=
PLAYORDER=
